HIERARCHY
ROOT simHips
{
  OFFSET -207.377 98.6406 177.839
  CHANNELS 6 Xposition Yposition Zposition Zrotation Xrotation Yrotation
  JOINT simSpine
  {
    OFFSET -0.000355721 21.3001 -0.016921
    CHANNELS 3 Zrotation Xrotation Yrotation
    JOINT simLeftArm
    {
      OFFSET 13.5181 21.3012 0
      CHANNELS 3 Zrotation Xrotation Yrotation
      JOINT simLeftForeArm
      {
        OFFSET 24.5783 0 0
        CHANNELS 3 Zrotation Xrotation Yrotation
        JOINT simLeftHand
        {
          OFFSET 24.5783 0 0
          CHANNELS 3 Zrotation Xrotation Yrotation
          End Site
          {
            OFFSET 7.32568 1.52588e-005 0.0169305
          }
        }
      }
    }
    JOINT simHead
    {
      OFFSET 0 27.4458 -0.00489235
      CHANNELS 3 Zrotation Xrotation Yrotation
      End Site
      {
        OFFSET 0 0 0
      }
    }
    JOINT simRightArm
    {
      OFFSET -13.5174 21.3012 0
      CHANNELS 3 Zrotation Xrotation Yrotation
      JOINT simRightForeArm
      {
        OFFSET -24.5783 0 0
        CHANNELS 3 Zrotation Xrotation Yrotation
        JOINT simRightHand
        {
          OFFSET -24.5783 0 0
          CHANNELS 3 Zrotation Xrotation Yrotation
          End Site
          {
            OFFSET -7.32568 1.52588e-005 0.0169305
          }
        }
      }
    }
  }
  JOINT simRightUpLeg
  {
    OFFSET -8.44614 -9.41038 0.835684
    CHANNELS 3 Zrotation Xrotation Yrotation
    JOINT simRightLeg
    {
      OFFSET 0 -40.9639 0
      CHANNELS 3 Zrotation Xrotation Yrotation
      JOINT simRightFoot
      {
        OFFSET 0 -40.9639 0
        CHANNELS 3 Zrotation Xrotation Yrotation
        End Site
        {
          OFFSET 0.50614 -9.67405 14.6709
        }
      }
    }
  }
  JOINT simLeftUpLeg
  {
    OFFSET 8.44614 -9.41038 0.835684
    CHANNELS 3 Zrotation Xrotation Yrotation
    JOINT simLeftLeg
    {
      OFFSET 0 -40.9639 0
      CHANNELS 3 Zrotation Xrotation Yrotation
      JOINT simLeftFoot
      {
        OFFSET 0 -40.9639 0
        CHANNELS 3 Zrotation Xrotation Yrotation
        End Site
        {
          OFFSET -0.50614 -9.67405 14.6709
        }
      }
    }
  }
}
MOTION
Frames:	26
Frame Time:	0.0333333
270.445 99.7412 375.501 -0.0112832 0 -0 -0.00173925 2.62543 3.37863e-006 8.04173 3.76603 0.382923 14.9797 -0.232185 -0.0269954 5.68623e-005 0.00544879 0.0135073 -2.02581e-006 17.0315 -5.15956e-006 -2.02558 3.74325 -0.0952098 -17.2717 -0.298178 0.00181965 0.000119135 0.000917866 -0.00196098 -0.640232 -1.75236 0.0478121 1.54398e-005 15.1131 -0.0461889 0.669283 -10.8941 0.033016 0.962934 -1.44339 -0.0703896 -0.0142141 14.2148 0.0399148 -0.99571 -10.5706 -0.0655045 
270.445 99.7413 375.505 -0.0112818 -0.00694638 0.0113944 -0.00167976 2.62374 -0.00129628 8.01306 3.74201 0.444181 14.9889 -0.259583 -0.123726 -0.015117 0.0393724 0.0548832 0.00608268 17.0516 -0.00487739 -1.99344 3.71893 -0.115534 -17.2734 -0.298178 0.00181965 0.0142873 -0.0137175 -0.00884512 -0.640223 -1.71446 0.0491857 -0.00064748 15.0843 -0.0532128 0.672348 -10.8941 0.0284237 0.962952 -1.42834 -0.0703891 -0.0125622 14.2039 0.0332125 -0.992537 -10.5694 -0.0699501 
270.44 99.7414 375.514 -0.0112589 -0.0195748 0.0712278 -0.00128563 2.61594 -0.00993555 7.92074 3.69641 0.381974 15.0414 -0.238616 -0.0156461 -0.0267297 0.10387 -0.0355701 0.0611736 17.0909 -0.0620804 -1.8972 3.61621 -0.197178 -17.2573 -0.298178 0.00181965 -0.0649058 -0.0997351 0.209591 -0.636036 -1.73564 0.0337807 -0.00390786 15.1315 -0.0791254 0.67923 -10.8941 0.0116638 0.967648 -1.4136 -0.0705095 -0.0046646 14.1832 0.00102796 -0.987964 -10.5611 -0.0913305 
270.431 99.7414 375.522 -0.011229 -0.024538 0.126471 -0.00096536 2.60693 -0.0170113 7.84031 3.73589 0.377385 15.1363 -0.24307 9.20022e-005 -0.0278514 0.170137 -0.106029 0.159567 17.123 -0.197001 -1.79065 3.56772 -0.280027 -17.2906 -0.309345 0.00181965 -0.0298012 -0.169504 0.256858 -0.624404 -1.61984 0.0197057 -0.00620839 15.025 -0.104656 0.678105 -10.8941 -0.00633662 0.979486 -1.41201 -0.0586291 0.00546447 14.172 -0.0403425 -0.989089 -10.555 -0.119385 
270.421 99.7414 375.527 -0.0112155 -0.0224063 0.173188 -0.000752816 2.59914 -0.0217492 7.77406 3.88045 0.454272 15.2728 -0.280201 -0.0935931 -0.0409944 0.116383 -0.0658783 0.31997 17.1591 -0.415925 -1.68665 3.56418 -0.362648 -17.35 -0.32744 0.00181965 -0.065668 -0.222245 0.210378 -0.610236 -1.68663 0.0269733 -0.00438958 15.0894 -0.138773 0.672427 -10.8941 -0.0295724 0.991231 -1.39428 -0.0499961 0.0140087 14.1364 -0.0744076 -0.994998 -10.548 -0.142247 
270.409 99.7412 375.529 -0.0129219 -0.0147389 0.210252 -0.000735581 2.59182 -0.0221917 7.71097 4.03739 0.456443 15.4208 -0.267358 8.20195e-005 0.121503 -0.00276453 -0.181657 0.483492 17.2114 -0.683967 -1.59389 3.52603 -0.440114 -17.3876 -0.333231 0.00181965 -0.158397 -0.230037 0.141468 -0.597655 -1.67365 0.0480564 0.00357033 15.0668 -0.175716 0.664906 -10.8941 -0.0539843 1.00298 -1.37602 -0.031273 0.0229266 14.0973 -0.108652 -1.00394 -10.5425 -0.164877 
270.395 99.7411 375.53 -0.0153177 -0.00282519 0.236702 -0.0007998 2.58503 -0.020826 7.65454 4.15014 0.526423 15.5445 -0.283548 -0.0177116 0.282429 0.0230234 -0.254157 0.528953 17.1679 -1.02626 -1.50915 3.45532 -0.519475 -17.4063 -0.336048 0.00181965 -0.218026 -0.148075 0.071449 -0.584749 -1.60852 0.0755991 0.0154087 14.9869 -0.209995 0.655332 -10.8941 -0.0755329 1.0174 -1.38946 -0.00514385 0.0319289 14.0919 -0.143094 -1.01721 -10.5409 -0.187854 
270.381 99.7408 375.531 -0.0200576 0.0141999 0.253985 -0.00551723 2.57793 -0.0196884 7.62131 4.22453 0.593092 15.6136 -0.290522 -0.0200452 0.357186 -0.0126565 -0.292178 0.522046 17.0875 -1.29683 -1.44313 3.42415 -0.569225 -17.388 -0.329535 0.00181965 -0.346327 -0.17793 0.0183783 -0.571878 -1.6229 0.0917644 0.0279588 14.9815 -0.2317 0.64129 -10.8941 -0.0886407 1.03316 -1.42634 0.0170101 0.0388791 14.1117 -0.170383 -1.03008 -10.5417 -0.206188 
270.365 99.7406 375.533 -0.0263333 0.0320218 0.267008 -0.0106871 2.57138 -0.0194856 7.61215 4.14993 0.63953 15.6272 -0.29443 -0.0305997 0.352914 0.0679079 -0.328404 0.530787 17.0186 -1.50471 -1.39177 3.43342 -0.607269 -17.329 -0.310303 0.00181965 -0.558638 -0.335245 -0.0681308 -0.555593 -1.72998 0.106082 0.0392762 15.0665 -0.249629 0.624584 -10.8941 -0.0996106 1.05231 -1.45393 0.0339881 0.0438285 14.1245 -0.192588 -1.04396 -10.5456 -0.221529 
270.346 99.7404 375.532 -0.0367402 0.0448391 0.280616 -0.0151098 2.56661 -0.0194934 7.62918 4.01749 0.65902 15.6015 -0.280963 7.83396e-005 0.345461 0.106416 -0.36668 0.560373 17.0332 -1.63584 -1.31589 3.3649 -0.654156 -17.3378 -0.313955 0.00181965 -0.649876 -0.341461 -0.123396 -0.532451 -1.72491 0.110549 0.0435455 15.0417 -0.261679 0.60758 -10.8887 -0.107974 1.07812 -1.49421 0.0381004 0.045924 14.1563 -0.207429 -1.05811 -10.5522 -0.232883 
270.325 99.7403 375.532 -0.0504279 0.0529984 0.296333 -0.0189843 2.56298 -0.0196012 7.65378 3.9416 0.694146 15.601 -0.279256 -0.000181411 0.341191 0.0305818 -0.318124 0.579227 17.0853 -1.69604 -1.27258 3.3559 -0.680944 -17.3544 -0.321945 0.00181965 -0.61822 -0.364486 0.0223207 -0.501841 -1.69473 0.0812163 0.0426951 14.9905 -0.263491 0.591339 -10.8783 -0.110145 1.11026 -1.48252 0.0216442 0.0421031 14.137 -0.210874 -1.07265 -10.5574 -0.237801 
270.301 99.7402 375.531 -0.0640979 0.0568196 0.316227 -0.0231376 2.56016 -0.0196984 7.6822 3.91038 0.775943 15.6401 -0.311025 -0.0972547 0.282952 -0.00323647 -0.240168 0.576659 17.16 -1.67488 -1.25443 3.42014 -0.707577 -17.3794 -0.332992 0.00181965 -0.454753 -0.341605 0.125913 -0.470379 -1.57917 0.0661918 0.0391622 14.8589 -0.260726 0.576839 -10.8682 -0.109608 1.14527 -1.48844 -0.0117039 0.0325765 14.1341 -0.20573 -1.08679 -10.5594 -0.238557 
270.273 99.7401 375.531 -0.0768777 0.0591801 0.344067 -0.0280914 2.55384 -0.0196746 7.71777 3.94832 0.781397 15.7026 -0.311472 -0.0703885 0.236439 0.0493124 -0.317485 0.553108 17.2602 -1.5925 -1.2566 3.56567 -0.753023 -17.4097 -0.344992 0.00181965 -0.356553 -0.338704 0.106032 -0.435445 -1.51633 0.0396318 0.0331801 14.7822 -0.254793 0.558079 -10.8586 -0.108117 1.1834 -1.50766 -0.0557487 0.0178596 14.1391 -0.200646 -1.10003 -10.5603 -0.239981 
270.242 99.7401 375.53 -0.0884004 0.0648201 0.374651 -0.0346254 2.54693 -0.0197313 7.74857 4.00856 0.765192 15.7696 -0.312934 -0.0182437 0.198163 0.0802004 -0.392457 0.525305 17.37 -1.51758 -1.27242 3.78604 -0.815874 -17.4324 -0.347857 0.00181965 -0.358511 -0.330204 0.149741 -0.396312 -1.58899 -0.0154325 0.0140016 14.843 -0.239183 0.544259 -10.8522 -0.107431 1.22325 -1.48535 -0.0852944 0.00510843 14.0983 -0.204284 -1.11574 -10.5603 -0.247577 
270.211 99.74 375.529 -0.0983359 0.0698704 0.399388 -0.0423256 2.54713 -0.0200864 7.76643 4.03749 0.760299 15.8242 -0.314867 -0.000187363 0.187157 0.0685629 -0.420079 0.495877 17.4736 -1.46992 -1.28703 4.0503 -0.900663 -17.4551 -0.347643 0.00181965 -0.341551 -0.278051 0.222535 -0.359558 -1.4982 -0.0514026 0.000143394 14.742 -0.233195 0.528566 -10.8468 -0.108168 1.26272 -1.50085 -0.0952746 -0.00634756 14.1021 -0.214055 -1.13201 -10.5598 -0.258863 
270.181 99.7399 375.525 -0.106765 0.074701 0.415597 -0.0505112 2.54714 -0.0206539 7.77301 4.04018 0.761348 15.886 -0.316782 4.20279e-005 0.101705 -0.0389138 -0.456357 0.448261 17.5885 -1.43181 -1.28241 4.16762 -0.949294 -17.491 -0.352699 0.00181966 -0.271955 -0.0424317 0.375905 -0.33035 -1.42695 -0.0481481 0.00536011 14.6592 -0.249534 0.506285 -10.8411 -0.12022 1.30009 -1.51051 -0.0863901 -0.0151003 14.1024 -0.229193 -1.14864 -10.559 -0.272925 
270.152 99.7398 375.523 -0.115707 0.0842981 0.430279 -0.0583895 2.53943 -0.0213477 7.76792 4.00975 0.759497 15.947 -0.318188 -0.00988111 -0.0359804 -0.290229 -0.524537 0.378392 17.7165 -1.38141 -1.26383 4.23187 -0.958719 -17.5363 -0.359657 0.00181966 -0.198598 0.155437 0.544153 -0.304617 -1.36608 -0.0337336 0.0193175 14.5837 -0.273447 0.481305 -10.8385 -0.13563 1.33443 -1.54269 -0.0816139 -0.018929 14.1262 -0.240756 -1.16772 -10.5584 -0.283852 
270.125 99.7396 375.522 -0.123588 0.096151 0.441802 -0.0659848 2.52759 -0.0220818 7.73922 3.92734 0.741513 15.9976 -0.318487 2.83363e-005 -0.110297 -0.587741 -0.711514 0.295189 17.8583 -1.30522 -1.23774 4.2659 -0.952211 -17.5692 -0.364116 0.00181966 -0.146078 0.210115 0.620213 -0.279203 -1.59192 -0.0278988 0.0289953 14.7948 -0.28362 0.455946 -10.8367 -0.142446 1.36557 -1.55811 -0.0739671 -0.0196211 14.1305 -0.251957 -1.18787 -10.5581 -0.293818 
270.1 99.7394 375.523 -0.129957 0.110962 0.449404 -0.0729481 2.51319 -0.0227703 7.69012 3.83559 0.729179 16.0416 -0.321349 -0.00882346 -0.161958 -0.935769 -1.00893 0.194066 18.0201 -1.21448 -1.2091 4.27876 -0.916843 -17.5768 -0.362111 0.00181966 -0.163167 0.156793 0.619916 -0.258077 -1.49636 -0.0251008 0.0403284 14.6834 -0.285935 0.429738 -10.8356 -0.143859 1.39206 -1.57678 -0.0649366 -0.0184242 14.1301 -0.260864 -1.20529 -10.5587 -0.30178 
270.075 99.7391 375.524 -0.134998 0.128783 0.454443 -0.0798435 2.50015 -0.0233273 7.62806 3.74911 0.685316 16.0753 -0.324279 -0.0120681 -0.178359 -1.1296 -1.22055 0.0780409 18.1964 -1.14072 -1.17564 4.26192 -0.887174 -17.5871 -0.363397 0.00181966 -0.0924163 0.146944 0.573461 -0.240281 -1.31734 -0.0263709 0.051726 14.4867 -0.284253 0.404364 -10.8353 -0.142831 1.41417 -1.59147 -0.0576797 -0.0181049 14.1268 -0.262892 -1.22193 -10.5603 -0.307402 
270.052 99.7388 375.527 -0.13582 0.149857 0.455597 -0.0892111 2.48953 -0.0236667 7.56121 3.68379 0.64717 16.0983 -0.325474 -0.0137899 -0.143533 -1.14874 -1.23594 -0.0226522 18.3632 -1.07622 -1.13369 4.21056 -0.861283 -17.6146 -0.372056 0.00181966 0.0903839 0.203546 0.592803 -0.227226 -1.55286 -0.0349188 0.0598911 14.7052 -0.280132 0.381884 -10.8359 -0.139887 1.42874 -1.63068 -0.0581305 -0.0177595 14.1509 -0.261964 -1.23651 -10.5646 -0.309448 
270.03 99.7384 375.531 -0.136805 0.172284 0.455225 -0.0992555 2.47965 -0.0237027 7.49846 3.60864 0.617244 16.1145 -0.325868 -0.0142318 -0.158807 -1.1538 -1.18132 -0.0913464 18.4843 -1.02783 -1.08283 4.11559 -0.847403 -17.6556 -0.385147 0.00181966 0.238657 0.257665 0.581211 -0.216074 -1.67288 -0.0749643 0.056228 14.8029 -0.262719 0.363003 -10.8373 -0.129061 1.44034 -1.64588 -0.0602835 -0.0173732 14.154 -0.259802 -1.24787 -10.5712 -0.310033 
270.009 99.7382 375.539 -0.142403 0.183251 0.454156 -0.107556 2.47321 -0.0233492 7.45632 3.53891 0.598483 16.1323 -0.325875 -0.0136367 -0.229643 -1.09157 -1.15696 -0.148831 18.5221 -0.992599 -1.04548 4.00978 -0.836284 -17.6844 -0.393674 0.00181966 0.268832 0.277456 0.56045 -0.199488 -1.78915 -0.0873429 0.0585678 14.9137 -0.281332 0.358338 -10.8396 -0.142303 1.45941 -1.66139 -0.0598375 -0.0165497 14.1682 -0.258222 -1.26186 -10.5787 -0.309397 
269.988 99.738 375.552 -0.149505 0.189044 0.445425 -0.114868 2.4683 -0.0225203 7.43672 3.51013 0.594527 16.1338 -0.325906 -0.0122475 -0.288132 -0.949828 -1.18581 -0.203084 18.5013 -0.966144 -1.02614 3.95708 -0.855697 -17.7095 -0.39986 0.00181967 0.188669 0.268717 0.542917 -0.179964 -1.78804 -0.0819667 0.0590691 14.9119 -0.292202 0.336062 -10.8454 -0.151963 1.48059 -1.67386 -0.0508238 -0.0154257 14.1911 -0.257481 -1.27632 -10.5899 -0.307785 
269.968 99.738 375.569 -0.158702 0.187421 0.432004 -0.122139 2.46535 -0.02113 7.43571 3.51734 0.605109 16.1207 -0.326376 -0.010307 -0.293963 -0.934982 -1.20404 -0.250439 18.44 -0.946269 -1.03235 3.95238 -0.874909 -17.7274 -0.400326 0.00181967 0.0688125 0.25824 0.574046 -0.157795 -1.77304 -0.076532 0.059123 14.9041 -0.29128 0.311794 -10.8488 -0.153676 1.50271 -1.66742 -0.0522761 -0.0164696 14.206 -0.248589 -1.29245 -10.6036 -0.303645 
269.948 99.7379 375.591 -0.168623 0.183559 0.422955 -0.130593 2.46372 -0.0190924 7.44695 3.4973 0.6203 16.111 -0.327697 -0.00805815 -0.25718 -0.986609 -1.18671 -0.285936 18.3351 -0.945095 -1.07493 3.97495 -0.890417 -17.7224 -0.39835 0.00181967 -0.038248 0.305876 0.711029 -0.134165 -1.75385 -0.0886734 0.0605596 14.9028 -0.27703 0.292314 -10.8531 -0.145467 1.52533 -1.63563 -0.0675585 -0.0192208 14.2 -0.23441 -1.31012 -10.6192 -0.296122 
